<svg width="200" height="40" viewBox="0 0 200 40" fill="none" xmlns="http://www.w3.org/2000/svg">
  <defs>
    <mask id="cg-clear-lockup">
      <rect x="4" y="4" width="32" height="32" fill="white"/>
      <circle cx="20" cy="20" r="5" fill="black"/>
    </mask>
  </defs>
  <g transform="translate(4 4) scale(0.5)">
    <g mask="url(#cg-clear-lockup)" stroke="#a388ee" fill="none" stroke-width="2.6" stroke-linecap="round">
      <ellipse cx="32" cy="32" rx="26" ry="7.8"/>
      <ellipse cx="32" cy="18" rx="21.5" ry="6"/>
      <ellipse cx="32" cy="46" rx="21.5" ry="6"/>
      <line x1="32" y1="6" x2="32" y2="58"/>
      <ellipse cx="32" cy="32" rx="9.5" ry="26"/>
      <ellipse cx="32" cy="32" rx="19" ry="26"/>
    </g>
    <circle cx="32" cy="32" r="26" stroke="#a388ee" stroke-width="3.4" fill="none"/>
    <path d="M32 22.5 C32.8 28.9 35.1 31.2 41.5 32 C35.1 32.8 32.8 35.1 32 41.5 C31.2 35.1 28.9 32.8 22.5 32 C28.9 31.2 31.2 28.9 32 22.5 Z" fill="#cbbcf3"/>
  </g>
  <text x="46" y="27" font-family="Archivo, sans-serif" font-size="18" font-weight="800" letter-spacing="-0.5" fill="#e6e6e6">Cosmograph</text>
</svg>
